<?xml version="1.0" encoding="UTF-8" standalone="no"?>
<!DOCTYPE svg PUBLIC "-//W3C//DTD SVG 1.1//EN" "http://www.w3.org/Graphics/SVG/1.1/DTD/svg11.dtd">
<svg version="1.1" xmlns="http://www.w3.org/2000/svg" xmlns:xlink="http://www.w3.org/1999/xlink" preserveAspectRatio="xMidYMid meet" viewBox="136.62917271407775 27.079100145137176 351.9375907111764 351.93759071117665" width="315.27" height="306.94"><defs><path d="M466.07 203.05C466.07 287.75 397.3 356.52 312.6 356.52C227.9 356.52 159.13 287.75 159.13 203.05C159.13 118.35 227.9 49.58 312.6 49.58C397.3 49.58 466.07 118.35 466.07 203.05Z" id="c6eQQkHG5L"></path><path d="M374.92 181.82C340.4 200.73 287.35 121.72 230.3 198.81C173.25 275.89 157.89 207.31 159.21 173.46C160.52 139.61 209.92 114 269.44 116.31C328.97 118.62 409.45 162.92 374.92 181.82Z" id="e3OEb2Sgbb"></path><path d="M258.98 220.14C294.69 202.27 342.47 288.47 404.49 210.71C466.51 132.95 477.34 205.99 473.8 241.51C470.27 277.04 419.27 301.1 359.99 295.2C300.71 289.3 223.27 238.01 258.98 220.14Z" id="b11lF5HTBc"></path></defs><g><g><g><use xlink:href="#c6eQQkHG5L" opacity="1" fill-opacity="0" stroke="#15b039" stroke-width="45" stroke-opacity="0.99"></use></g></g><g><use xlink:href="#e3OEb2Sgbb" opacity="1" fill="#14af3f" fill-opacity="0.99"></use></g><g><use xlink:href="#b11lF5HTBc" opacity="1" fill="#14af3f" fill-opacity="0.99"></use></g></g></svg>