<?xml version="1.0" encoding="UTF-8" standalone="no"?>
<!DOCTYPE svg PUBLIC "-//W3C//DTD SVG 1.1//EN" "http://www.w3.org/Graphics/SVG/1.1/DTD/svg11.dtd">
<svg version="1.1" xmlns="http://www.w3.org/2000/svg" xmlns:xlink="http://www.w3.org/1999/xlink" preserveAspectRatio="xMidYMid meet" viewBox="136.68827005799258 27.079100145137176 351.93759071117654 351.93759071117665" width="306.94" height="306.94"><defs><path d="M466.13 203.05C466.13 287.75 397.36 356.52 312.66 356.52C227.96 356.52 159.19 287.75 159.19 203.05C159.19 118.35 227.96 49.58 312.66 49.58C397.36 49.58 466.13 118.35 466.13 203.05Z" id="c1SNmdUOJ"></path><path d="M250.24 233.51C284.01 212.19 340.09 293.23 394.1 209.72C448.12 126.2 466.13 197.81 466.13 233.51C466.13 269.21 417.76 298.2 358.18 298.2C298.61 298.2 216.48 254.83 250.24 233.51Z" id="a24n1RWM5C"></path><path d="M375.07 179.92C341.31 201.25 285.23 120.2 231.21 203.72C177.19 287.24 159.19 215.63 159.19 179.92C159.19 144.22 207.56 115.23 267.13 115.23C326.7 115.23 408.83 158.6 375.07 179.92Z" id="aoyh6P89J"></path></defs><g><g><g><use xlink:href="#c1SNmdUOJ" opacity="1" fill-opacity="0" stroke="#6da94f" stroke-width="45" stroke-opacity="0.99"></use></g></g><g><use xlink:href="#a24n1RWM5C" opacity="1" fill="#6da94f" fill-opacity="0.99"></use></g><g><use xlink:href="#aoyh6P89J" opacity="1" fill="#6da94f" fill-opacity="0.99"></use></g></g></svg>
